<?xml version="1.0" standalone="no"?>
<!DOCTYPE svg PUBLIC "-//W3C//DTD SVG 20010904//EN"
 "http://www.w3.org/TR/2001/REC-SVG-20010904/DTD/svg10.dtd">
<svg version="1.0" xmlns="http://www.w3.org/2000/svg"
 width="971.000000pt" height="972.000000pt" viewBox="0 0 971.000000 972.000000"
 preserveAspectRatio="xMidYMid meet">

<g transform="translate(0.000000,972.000000) scale(0.100000,-0.100000)"
fill="#000000" stroke="none">
<path d="M4705 9699 c-362 -15 -818 -87 -1150 -181 -558 -156 -1134 -442
-1587 -784 -367 -278 -715 -627 -982 -981 -627 -835 -966 -1848 -966 -2886 0
-1169 402 -2262 1160 -3152 461 -542 1095 -1014 1735 -1293 534 -232 1004
-348 1613 -397 403 -33 837 -5 1277 81 1502 295 2791 1306 3443 2701 238 508
380 1033 438 1618 32 328 17 819 -36 1162 -126 812 -460 1586 -964 2232 -187
241 -508 574 -726 756 -820 682 -1840 1076 -2905 1120 -77 3 -151 7 -165 8
-14 2 -97 0 -185 -4z m545 -859 c439 -39 974 -192 1374 -392 233 -117 538
-310 726 -461 118 -94 305 -269 426 -397 570 -605 914 -1316 1049 -2170 33
-207 45 -628 26 -890 -54 -728 -344 -1494 -790 -2079 -631 -827 -1514 -1369
-2519 -1545 -212 -37 -372 -48 -712 -49 -321 -1 -445 10 -728 64 -417 79 -888
256 -1247 469 -974 579 -1656 1509 -1899 2590 -72 320 -86 465 -86 879 0 412
15 553 91 887 282 1238 1163 2290 2340 2792 370 158 795 269 1154 300 142 13
658 14 795 2z"/>
<path d="M2500 7779 c-604 -488 -1011 -1079 -1243 -1804 -64 -202 -147 -589
-147 -689 0 -27 18 -50 119 -157 471 -495 1035 -750 1790 -809 222 -17 699
-12 1120 12 455 25 962 30 1121 10 372 -47 624 -151 832 -342 72 -65 180 -202
221 -279 l25 -46 -195 -335 c-806 -1383 -1263 -2180 -1263 -2202 0 -25 54 -33
230 -33 178 0 191 4 232 77 146 258 946 1636 1388 2393 845 1445 1482 2549
1488 2581 8 42 -138 375 -235 538 -84 140 -281 358 -413 456 -306 229 -733
325 -1292 292 -242 -14 -409 -34 -868 -102 -904 -134 -1178 -157 -1526 -130
-402 32 -702 134 -968 330 -41 31 -133 110 -205 178 -71 67 -131 122 -133 122
-2 -1 -37 -28 -78 -61z"/>
<path d="M1060 4982 c0 -26 7 -104 15 -172 71 -590 224 -971 500 -1247 198
-197 424 -316 757 -397 241 -59 456 -83 1023 -116 193 -11 429 -27 525 -36
169 -15 461 -57 481 -70 5 -3 -174 -370 -401 -819 -370 -733 -408 -814 -391
-820 39 -12 366 -53 373 -47 3 4 181 324 394 712 212 388 480 874 594 1080
273 494 498 910 512 947 17 45 5 61 -74 98 -89 40 -183 69 -308 92 -125 24
-626 23 -985 -2 -137 -9 -432 -19 -655 -22 -450 -6 -564 1 -882 58 -281 50
-475 112 -701 225 -233 116 -391 230 -614 446 -78 76 -147 138 -153 138 -5 0
-10 -22 -10 -48z"/>
</g>
</svg>
